<svg class="menu-close-icon" width="18" height="18" viewBox="0 0 18 18" fill="none" xmlns="http://www.w3.org/2000/svg" style="display: inline;">
            <path d="M0.899813 0.899991C1.39686 0.40294 2.20274 0.40294 2.6998 0.899991L17.0997 15.2999C17.5967 15.7969 
                17.5967 16.6028 17.0997 17.0998C16.6026 17.5969 15.7967 17.5969 15.2997 17.0998L0.899813 2.69997C0.402761 
                2.20292 0.402762 1.39704 0.899813 0.899991Z" fill="#30183F"></path>
            <path d="M0.899991 17.0992C0.40294 16.6022 0.40294 15.7963 0.899991 15.2992L15.2999 0.899367C15.7969 0.402316 
                16.6028 0.402317 17.0998 0.899368C17.5969 1.39642 17.5969 2.2023 17.0998 2.69935L2.69997 17.0992C2.20292 
                17.5963 1.39704 17.5963 0.899991 17.0992Z" fill="#30183F"></path>
            </svg>