<svg width="22" height="22" viewBox="0 0 22 22" fill="none" xmlns="http://www.w3.org/2000/svg">
        <path d="M19.9918 5.00545H15.9864V3.99728C15.9864 3.45232 15.8501 2.96185 15.5777 2.51226C15.3052 2.04905 
            14.9373 1.6812 14.4741 1.40872C14.0245 1.13624 13.5341 1 12.9891 1H9.0109C8.46594 1 7.96185 1.13624 7.49864 
            1.40872C7.04905 1.6812 6.69482 2.04905 6.42234 2.51226C6.14986 2.96185 6.01362 3.45232 6.01362 
            3.99728V5.00545H2.00817C1.73569 5.00545 1.49046 5.11444 1.2861 5.3188C1.09537 5.50954 1 5.74114 1 
            6.01362V9.99183C1 10.4278 1.08174 10.8365 1.25886 11.218C1.43597 11.5995 1.6812 11.9401 2.00817 
            12.2262V18.0027C2.00817 18.5477 2.14441 19.0381 2.41689 19.4877C2.68937 19.951 3.0436 20.3188 3.49319 
            20.5913C3.9564 20.8638 4.46049 21 5.00545 21H16.9945C17.5395 21 18.03 20.8638 18.4796 20.5913C18.9428 
            20.3188 19.3106 19.951 19.5831 19.4877C19.8556 19.0381 19.9918 18.5477 19.9918 18.0027V12.2262C20.3052 
            11.9401 20.564 11.5995 20.7411 11.218C20.9183 10.8365 21 10.4278 21 9.99183V6.01362C21 5.74114 20.891 
            5.50954 20.6866 5.3188C20.4959 5.11444 20.2643 5.00545 19.9918 5.00545ZM8.00272 3.99728C8.00272 3.7248 
            8.09809 3.49319 8.28883 3.30245C8.49319 3.11172 8.73842 3.01635 9.0109 3.01635H12.9891C13.2616 3.01635 
            13.4932 3.11172 13.6839 3.30245C13.8883 3.49319 13.9973 3.7248 13.9973 3.99728V5.00545H8.00272V3.99728ZM18.0027 
            18.0027C18.0027 18.2752 17.8937 18.5068 17.6894 18.6975C17.4986 18.8883 17.267 18.9837 16.9945 
            18.9837H5.00545C4.73297 18.9837 4.48774 18.8883 4.28338 18.6975C4.09264 18.5068 3.99728 18.2752 3.99728 
            18.0027V12.9891H6.01362V13.9973C6.04087 14.2425 6.14986 14.4469 6.3406 14.624C6.53134 14.7875 6.74932 
            14.8692 6.99455 14.8692C7.25341 14.8692 7.47139 14.7875 7.66213 14.624C7.85286 14.4469 7.96185 14.2425 
            8.00272 13.9973V12.9891H13.9973V13.9973C14.0245 14.2425 14.1335 14.4469 14.3379 14.624C14.5286 14.7875 
            14.7466 14.8692 14.9918 14.8692C15.2507 14.8692 15.4687 14.7875 15.6594 14.624C15.8501 14.4469 15.9591 
            14.2425 16 13.9973V12.9891H18.0163V18.0027H18.0027ZM18.9837 9.99183C18.9837 10.2643 18.8883 10.5095 18.6975 
            10.7139C18.5068 10.9046 18.2752 11 18.0027 11H15.9864V9.99183C15.9591 9.74659 15.8365 9.55586 15.6458 
            9.39237C15.455 9.21526 15.2234 9.13351 14.9782 9.13351C14.733 9.13351 14.5286 9.21526 14.3243 
            9.39237C14.1335 9.55586 14.0245 9.74659 13.9973 9.99183V11H8.00272V9.99183C7.97548 9.74659 7.85286 9.55586 
            7.66213 9.39237C7.47139 9.21526 7.25341 9.13351 6.99455 9.13351C6.74932 9.13351 6.54496 9.21526 6.3406 
            9.39237C6.14986 9.55586 6.04087 9.74659 6.01362 9.99183V11H3.99728C3.7248 11 3.49319 10.9046 3.30245 
            10.7139C3.11172 10.5095 3.01635 10.2643 3.01635 9.99183V6.99455H18.9837V9.99183Z" fill="#30183F" stroke="white" stroke-width="0.4"></path>
        </svg>