<svg width="24" height="24" viewBox="0 0 24 24" fill="none" xmlns="http://www.w3.org/2000/svg">
        <path d="M10.8348 2C15.7282 2 19.6997 6.032 19.6997 11C19.6997 15.968 15.7282 20 10.8348 20C5.94143 20 1.96997 
            15.968 1.96997 11C1.96997 6.032 5.94143 2 10.8348 2ZM10.8348 18C14.6438 18 17.7297 14.867 17.7297 11C17.7297 
            7.132 14.6438 4 10.8348 4C7.02491 4 3.93994 7.132 3.93994 11C3.93994 14.867 7.02491 18 10.8348 18ZM19.1924 
            18.071L21.979 20.899L20.5852 22.314L17.7997 19.485L19.1924 18.071Z" fill="#30183F"></path>
        </svg>